<?xml version="1.0" encoding="UTF-8"?>
<svg id="_レイヤー_2" data-name="レイヤー 2" xmlns="http://www.w3.org/2000/svg" viewBox="0 0 26.98 26.99">
  <defs>
    <style>
      .cls-1 {
        stroke-width: 0px;
      }
    </style>
  </defs>
  <g id="Ebene_1" data-name="Ebene 1">
    <g>
      <path class="cls-1" d="m11.3,21.52h-.12c-3.06-.06-5.2-2.03-5.2-4.82,0-2.05,1.56-3.18,2.5-3.86.35-.27.95-.66,1.24-.85-1.02-.97-1.54-1.98-1.54-2.97,0-1.3.52-2.36,1.54-3.12.76-.6,1.96-1.03,2.86-1.03,2.55.03,4.13,1.86,4.13,3.54.02,1.44-1.16,2.13-2.2,2.74-.09.05-.16.09-.25.15,1.05.72,2.83,2.34,3.9,3.56.95-.91,2.66-3.15,2.81-3.67-.13-.08-.71-.18-1.14-.24-.14-.03-.29-.05-.44-.07-.26-.05-.52-.24-.54-.51-.02-.12.04-.26.15-.39.15-.19.43-.38.76-.38h5.32c.52,0,.96.26.96.59,0,.18-.07.6-.79.77-.16.05-.32.08-.48.12-1.09.28-1.64.42-2.69,1.47-.58.59-1.55,1.7-2.33,2.59-.28.33-.54.62-.75.85h0c.34.44.85,1.09,1.33,1.73.54.71,1.57,1.17,2.68,1.19.69,0,1.4-.33,1.76-.5.06-.03.13-.05.2-.05.27,0,.45.29.45.56,0,.34-.19.72-.54,1.06-1.3,1.29-3.12,1.49-4.1,1.49-.53,0-1.46-.12-2.03-.32-.52-.19-.9-.49-1.22-.96-.18-.26-.38-.56-.56-.83-.2-.31-.39-.6-.53-.79-.51.59-1.44,1.56-2.5,2.2-.78.49-1.77.78-2.65.78Zm-.51-8.65s-.02.01-.04.02c-.96.89-1.39,1.76-1.39,2.81,0,.84.45,1.79,1.1,2.31.64.51,1.48.8,2.31.8s2.2-.66,2.78-1.35c.02-.02.02-.04.02-.04-1.32-1.75-4.15-4.25-4.78-4.55h0Zm1.39-6.62c-.23,0-1.1.28-1.1,1.66,0,.9,1.05,2.08,1.99,2.58.04.02.07.04.09.05h0c.17-.09.35-.29.52-.6.21-.31.31-.95.31-1.42,0-.48-.45-2.27-1.8-2.27Z"/>
      <path class="cls-1" d="m13.49,26.99C6.05,26.99,0,20.93,0,13.49S6.05,0,13.49,0s13.5,6.05,13.5,13.49-6.06,13.49-13.5,13.49Zm0-24.56c-6.09.01-11.05,4.98-11.06,11.07,0,6.09,4.97,11.05,11.06,11.07,6.09-.02,11.06-4.98,11.07-11.07-.01-6.09-4.97-11.05-11.07-11.07Z"/>
    </g>
  </g>
</svg>